<svg xmlns="http://www.w3.org/2000/svg" xmlns:xlink="http://www.w3.org/1999/xlink" width="400" zoomAndPan="magnify" viewBox="0 0 300 74.999997" height="100" preserveAspectRatio="xMidYMid meet" version="1.0"><defs><g/></defs><g fill="#ffffff" fill-opacity="1"><g transform="translate(12.154091, 70.491372)"><g><path d="M 18.625 -60.890625 L -3.53125 -59.144531 L 1.128906 -0.0898438 L 23.121094 -1.824219 C 39.394531 -3.109375 51.722656 -17.414062 50.429688 -33.808594 C 49.15625 -49.964844 34.816406 -62.167969 18.625 -60.890625 Z M 22.730469 -8.847656 L 7.824219 -7.671875 L 4.273438 -52.707031 L 19.015625 -53.867188 C 31.464844 -54.851562 42.371094 -45.539062 43.339844 -33.25 C 44.324219 -20.804688 35.097656 -9.820312 22.730469 -8.847656 Z M 19.089844 -52.941406 L 5.113281 -51.839844 L 8.519531 -8.65625 L 22.496094 -9.757812 C 34.417969 -10.699219 43.363281 -21.175781 42.414062 -33.179688 C 41.484375 -44.980469 31.011719 -53.882812 19.089844 -52.941406 Z M 22.109375 -16.742188 L 15.019531 -16.183594 L 12.710938 -45.425781 L 19.800781 -45.984375 C 27.777344 -46.617188 34.710938 -40.394531 35.324219 -32.617188 C 35.96875 -24.480469 30.082031 -17.371094 22.109375 -16.742188 Z M 22.109375 -16.742188 "/></g></g></g><g fill="#ffffff" fill-opacity="1"><g transform="translate(66.534345, 66.419455)"><g><path d="M 2.019531 -0.105469 L 9.402344 -0.488281 L 6.320312 -59.726562 L -1.0625 -59.34375 Z M 10.25 -0.53125 L 17.554688 -0.914062 L 14.472656 -60.152344 L 7.167969 -59.769531 Z M 10.25 -0.53125 "/></g></g></g><g fill="#ffffff" fill-opacity="1"><g transform="translate(87.064273, 65.12673)"><g><path d="M -0.300781 -48.011719 L 0.886719 -0.0625 L 8.28125 -0.253906 L 7.066406 -47.636719 C 6.964844 -51.59375 10.316406 -53.214844 12.464844 -49.835938 L 37.464844 -11.265625 C 39.707031 -8.941406 42.753906 -9.949219 42.671875 -13.097656 L 41.460938 -60.441406 L 34.109375 -60.25 L 35.589844 -26.011719 L 17.898438 -55.511719 C 13.632812 -62.636719 -0.660156 -62.109375 -0.300781 -48.011719 Z M 9.167969 -0.273438 L 16.519531 -0.464844 L 15.445312 -31.316406 L 31.605469 -4.933594 C 37.339844 4.378906 51.257812 0.101562 51.007812 -11.167969 L 49.738281 -60.652344 L 42.347656 -60.464844 L 43.5625 -13.121094 C 43.664062 -9.121094 39.574219 -7.804688 36.792969 -10.601562 L 11.792969 -49.292969 C 10.402344 -51.519531 7.902344 -51.214844 7.996094 -47.660156 Z M 9.167969 -0.273438 "/></g></g></g><g fill="#ffffff" fill-opacity="1"><g transform="translate(139.945612, 63.660276)"><g><path d="M 31.882812 -29.015625 L 54.910156 -28.667969 C 54.640625 -16.0625 43.976562 -5.917969 31.535156 -6.269531 C 18.929688 -6.542969 9.027344 -16.875 9.21875 -29.441406 C 9.410156 -42.046875 19.707031 -52.15625 32.390625 -51.960938 C 37.039062 -51.890625 41.378906 -50.410156 44.859375 -48.09375 L 48.59375 -54.34375 C 43.910156 -57.324219 38.484375 -59.183594 32.503906 -59.277344 C 15.816406 -59.527344 2.15625 -46.199219 1.902344 -29.554688 C 1.652344 -12.945312 14.898438 0.792969 31.503906 1.042969 C 48.917969 1.308594 61.019531 -10.347656 61.28125 -27.761719 L 61.40625 -35.960938 L 31.996094 -36.410156 Z M 32.378906 -51.035156 C 20.21875 -51.21875 10.25 -41.628906 10.066406 -29.429688 C 9.882812 -17.347656 19.46875 -7.382812 31.550781 -7.117188 C 43.304688 -6.9375 53.308594 -16.203125 53.96875 -27.871094 L 31.871094 -28.207031 L 31.757812 -20.894531 L 44.121094 -20.707031 C 41.351562 -16.707031 36.628906 -14.273438 31.738281 -14.347656 C 23.621094 -14.554688 17.175781 -21.199219 17.296875 -29.320312 C 17.421875 -37.480469 24.148438 -43.925781 32.269531 -43.800781 C 35.378906 -43.753906 38.394531 -42.617188 40.832031 -40.921875 L 44.445312 -47.253906 C 41.042969 -49.566406 36.863281 -50.964844 32.378906 -51.035156 Z M 32.378906 -51.035156 "/></g></g></g><g fill="#ffffff" fill-opacity="1"><g transform="translate(201.430895, 64.552153)"><g><path d="M 34.792969 -58.078125 C 18.136719 -59.070312 3.730469 -46.289062 2.726562 -29.46875 C 1.734375 -12.808594 14.519531 1.59375 31.175781 2.585938 C 48.078125 3.59375 62.398438 -9.191406 63.394531 -25.851562 C 64.394531 -42.671875 51.695312 -57.070312 34.792969 -58.078125 Z M 31.613281 -4.714844 C 18.945312 -5.46875 9.355469 -16.363281 10.109375 -29.027344 C 10.875 -41.855469 21.691406 -51.53125 34.359375 -50.777344 C 47.265625 -50.007812 56.859375 -39.113281 56.09375 -26.285156 C 55.335938 -13.621094 44.519531 -3.945312 31.613281 -4.714844 Z M 34.308594 -49.929688 C 22.167969 -50.652344 11.695312 -41.359375 10.957031 -28.976562 C 10.234375 -16.835938 19.527344 -6.40625 31.667969 -5.679688 C 44.054688 -4.941406 54.523438 -14.195312 55.246094 -26.335938 C 55.984375 -38.71875 46.691406 -49.191406 34.308594 -49.929688 Z M 32.105469 -12.980469 C 24.078125 -13.460938 17.820312 -20.511719 18.296875 -28.539062 C 18.785156 -36.726562 25.839844 -42.988281 33.867188 -42.507812 C 42.253906 -42.007812 48.394531 -34.964844 47.90625 -26.773438 C 47.425781 -18.746094 40.496094 -12.480469 32.105469 -12.980469 Z M 32.105469 -12.980469 "/></g></g></g><g fill="#ffffff" fill-opacity="1"><g transform="translate(264.578863, 68.617947)"><g><path d="M 12.503906 -13.558594 L 16.511719 -57.988281 L 7.578125 -58.792969 L 4.734375 -14.257812 Z M 13.507812 -13.46875 L 21.234375 -12.769531 L 27.015625 -57.039062 L 17.519531 -57.898438 Z M 11.269531 1.015625 L 12.257812 -9.929688 L 4.410156 -10.636719 L 3.421875 0.308594 Z M 19.921875 1.796875 L 20.910156 -9.148438 L 13.183594 -9.847656 L 12.195312 1.101562 Z M 19.921875 1.796875 "/></g></g></g></svg>