<svg xmlns="http://www.w3.org/2000/svg" xmlns:xlink="http://www.w3.org/1999/xlink" width="128" zoomAndPan="magnify" viewBox="0 0 96 95.999999" height="128" preserveAspectRatio="xMidYMid meet" version="1.0"><defs><g/></defs><g fill="#ffffff" fill-opacity="1"><g transform="translate(9.673828, 87.862992)"><g><path d="M 32.382812 -82.136719 L 1.570312 -82.136719 L 1.570312 0 L 32.160156 0 C 54.792969 0 73.394531 -18.433594 73.394531 -41.234375 C 73.394531 -63.703125 54.90625 -82.136719 32.382812 -82.136719 Z M 32.382812 -9.75 L 11.652344 -9.75 L 11.652344 -72.386719 L 32.160156 -72.386719 C 49.472656 -72.386719 63.535156 -58.324219 63.535156 -41.234375 C 63.535156 -23.921875 49.582031 -9.75 32.382812 -9.75 Z M 32.160156 -71.097656 L 12.71875 -71.097656 L 12.71875 -11.039062 L 32.160156 -11.039062 C 48.742188 -11.039062 62.246094 -24.539062 62.246094 -41.234375 C 62.246094 -57.652344 48.742188 -71.097656 32.160156 -71.097656 Z M 32.382812 -20.730469 L 22.523438 -20.730469 L 22.523438 -61.40625 L 32.382812 -61.40625 C 43.476562 -61.40625 52.386719 -52.046875 52.386719 -41.234375 C 52.386719 -29.917969 43.476562 -20.730469 32.382812 -20.730469 Z M 32.382812 -20.730469 "/></g></g></g></svg>